<?xml version="1.0" standalone="no"?>
<!DOCTYPE svg PUBLIC "-//W3C//DTD SVG 20010904//EN"
 "http://www.w3.org/TR/2001/REC-SVG-20010904/DTD/svg10.dtd">
<svg version="1.0" xmlns="http://www.w3.org/2000/svg"
 width="512.000000pt" height="512.000000pt" viewBox="0 0 512.000000 512.000000"
 preserveAspectRatio="xMidYMid meet">

<g transform="translate(0.000000,512.000000) scale(0.100000,-0.100000)"
fill="#000000" stroke="none">
<path d="M910 4060 l0 -150 183 0 182 -1 118 -208 118 -208 -103 -257 c-98
-246 -103 -257 -126 -251 -107 27 -262 31 -391 10 -273 -45 -512 -190 -683
-415 -69 -90 -144 -246 -175 -365 -23 -88 -26 -119 -26 -255 0 -136 3 -167 26
-255 91 -344 350 -623 688 -738 447 -154 948 18 1213 416 82 123 123 225 161
404 l5 23 282 2 282 3 262 654 261 654 96 -160 c53 -88 99 -167 102 -176 4
-10 -17 -38 -62 -83 -235 -236 -349 -572 -302 -887 62 -415 354 -750 754 -865
488 -141 1008 92 1236 553 27 55 61 145 76 200 23 88 26 119 26 255 0 136 -3
167 -26 255 -108 407 -444 713 -858 780 -169 27 -325 15 -496 -40 -43 -13 -80
-21 -84 -17 -3 4 -83 135 -176 292 -136 227 -363 649 -363 675 0 3 153 5 340
5 322 0 343 -1 380 -20 45 -23 80 -80 80 -130 0 -50 -35 -107 -80 -130 -21
-11 -46 -20 -55 -20 -13 0 -15 -22 -15 -151 l0 -151 53 7 c203 28 355 177 389
379 38 231 -126 461 -361 506 -54 10 -1221 15 -1221 5 0 -3 65 -136 145 -295
80 -159 145 -292 145 -295 0 -3 -253 -4 -561 -3 l-561 3 -84 145 -83 145 95 3
94 3 0 149 0 150 -450 0 -450 0 0 -150z m1830 -1246 c-110 -273 -201 -498
-203 -500 -2 -3 -133 221 -290 496 l-286 500 489 0 488 0 -198 -496z m-735
-186 l294 -513 -96 -3 c-107 -3 -108 -3 -118 65 -17 116 -96 288 -189 414 -63
86 -178 193 -263 247 -24 15 -43 30 -43 34 0 8 98 257 107 271 3 5 7 6 10 3 3
-3 137 -236 298 -518z m-820 70 c3 -3 -71 -199 -166 -434 -94 -236 -173 -435
-176 -441 -4 -10 94 -13 471 -13 408 0 476 -2 476 -14 0 -33 -55 -166 -95
-231 -71 -114 -214 -240 -331 -290 -138 -60 -305 -79 -444 -51 -283 58 -495
246 -587 521 -23 71 -26 95 -26 215 0 120 3 144 26 215 90 269 299 458 572
519 66 15 267 17 280 4z m3023 -4 c276 -57 488 -247 579 -519 23 -71 26 -95
26 -215 0 -120 -3 -144 -26 -215 -144 -432 -606 -648 -1017 -475 -171 72 -327
228 -400 400 -112 266 -59 580 133 786 l52 55 185 -310 c102 -171 189 -311
193 -311 18 0 247 142 247 153 -1 7 -83 149 -185 317 l-183 305 36 13 c95 33
244 40 360 16z m-2644 -185 c108 -101 201 -253 222 -363 l6 -36 -255 0 -255 0
85 213 c47 116 89 222 94 235 5 12 13 22 18 22 5 0 43 -32 85 -71z"/>
</g>
</svg>
